<mxfile host="app.diagrams.net" modified="2021-03-20T18:14:25.174Z" agent="5.0 (X11)" etag="6amL7LvsgF7uW3WDvInh" version="14.4.9" type="github">
  <diagram id="mQI_0nkD2IU0TEgh4_OI" name="Page-1">
    <mxGraphModel dx="2370" dy="3671" grid="1" gridSize="10" guides="1" tooltips="1" connect="1" arrows="1" fold="1" page="1" pageScale="1" pageWidth="827" pageHeight="1169" math="0" shadow="0">
      <root>
        <mxCell id="0" />
        <mxCell id="1" parent="0" />
        <mxCell id="HH_CeNtuvAIVPq_1st5i-8" value="" style="html=1;whiteSpace=wrap;shape=isoCube2;backgroundOutline=1;isoAngle=15;gradientColor=#ffffff;fillColor=none;" vertex="1" parent="1">
          <mxGeometry x="83" y="-1120" width="666" height="1040" as="geometry" />
        </mxCell>
        <mxCell id="HH_CeNtuvAIVPq_1st5i-1" value="&lt;h1&gt;&lt;font style=&quot;font-size: 36px&quot; face=&quot;Helvetica&quot;&gt;Power_Board&lt;/font&gt;&lt;/h1&gt;" style="whiteSpace=wrap;html=1;aspect=fixed;" vertex="1" parent="1">
          <mxGeometry x="30" y="40" width="300" height="300" as="geometry" />
        </mxCell>
        <mxCell id="HH_CeNtuvAIVPq_1st5i-2" value="&lt;h1&gt;&lt;font style=&quot;font-size: 36px&quot;&gt;CPU_BOARD&lt;br&gt;&lt;/font&gt;&lt;/h1&gt;" style="whiteSpace=wrap;html=1;aspect=fixed;" vertex="1" parent="1">
          <mxGeometry x="480" y="40" width="300" height="300" as="geometry" />
        </mxCell>
        <mxCell id="HH_CeNtuvAIVPq_1st5i-4" value="&lt;h1&gt;&lt;font style=&quot;font-size: 36px&quot;&gt;CONNECTIVITY_&lt;/font&gt;&lt;/h1&gt;&lt;h1&gt;&lt;font style=&quot;font-size: 36px&quot;&gt;BOARD&lt;/font&gt;&lt;/h1&gt;" style="whiteSpace=wrap;html=1;aspect=fixed;" vertex="1" parent="1">
          <mxGeometry x="480" y="400" width="300" height="300" as="geometry" />
        </mxCell>
        <mxCell id="HH_CeNtuvAIVPq_1st5i-5" value="&lt;h1&gt;&lt;font style=&quot;font-size: 36px&quot;&gt;MOTOR_BOARD&lt;/font&gt;&lt;/h1&gt;" style="whiteSpace=wrap;html=1;aspect=fixed;" vertex="1" parent="1">
          <mxGeometry x="40" y="420" width="300" height="300" as="geometry" />
        </mxCell>
        <mxCell id="HH_CeNtuvAIVPq_1st5i-7" value="&lt;h1&gt;&lt;font style=&quot;font-size: 36px&quot;&gt;PERIPHERALS_&lt;/font&gt;&lt;/h1&gt;&lt;div&gt;&lt;h1&gt;&lt;font style=&quot;font-size: 36px&quot;&gt;BOARD&lt;/font&gt;&lt;/h1&gt;&lt;/div&gt;" style="whiteSpace=wrap;html=1;aspect=fixed;" vertex="1" parent="1">
          <mxGeometry x="30" y="750" width="300" height="300" as="geometry" />
        </mxCell>
        <mxCell id="HH_CeNtuvAIVPq_1st5i-13" value="" style="strokeWidth=2;html=1;shape=mxgraph.flowchart.decision;whiteSpace=wrap;opacity=50;" vertex="1" parent="1">
          <mxGeometry x="86" y="-500" width="660" height="320" as="geometry" />
        </mxCell>
        <mxCell id="HH_CeNtuvAIVPq_1st5i-14" value="" style="strokeWidth=2;html=1;shape=mxgraph.flowchart.decision;whiteSpace=wrap;opacity=50;" vertex="1" parent="1">
          <mxGeometry x="83" y="-600" width="666" height="320" as="geometry" />
        </mxCell>
        <mxCell id="HH_CeNtuvAIVPq_1st5i-15" value="" style="strokeWidth=2;html=1;shape=mxgraph.flowchart.decision;whiteSpace=wrap;opacity=50;" vertex="1" parent="1">
          <mxGeometry x="83" y="-730" width="666" height="320" as="geometry" />
        </mxCell>
        <mxCell id="HH_CeNtuvAIVPq_1st5i-16" value="" style="strokeWidth=2;html=1;shape=mxgraph.flowchart.decision;whiteSpace=wrap;opacity=50;" vertex="1" parent="1">
          <mxGeometry x="83" y="-840" width="666" height="320" as="geometry" />
        </mxCell>
        <mxCell id="HH_CeNtuvAIVPq_1st5i-17" value="" style="strokeWidth=2;html=1;shape=mxgraph.flowchart.decision;whiteSpace=wrap;opacity=50;" vertex="1" parent="1">
          <mxGeometry x="79" y="-980" width="670" height="320" as="geometry" />
        </mxCell>
        <mxCell id="HH_CeNtuvAIVPq_1st5i-18" value="&lt;h2&gt;POWER_BOARD&lt;/h2&gt;" style="text;html=1;strokeColor=none;fillColor=none;align=center;verticalAlign=middle;whiteSpace=wrap;rounded=0;opacity=50;rotation=-25;" vertex="1" parent="1">
          <mxGeometry x="459" y="-280" width="170" height="20" as="geometry" />
        </mxCell>
        <mxCell id="HH_CeNtuvAIVPq_1st5i-19" value="&lt;div&gt;&lt;h2&gt;CPU_BOARD&lt;/h2&gt;&lt;/div&gt;" style="text;html=1;strokeColor=none;fillColor=none;align=center;verticalAlign=middle;whiteSpace=wrap;rounded=0;opacity=50;rotation=-25;" vertex="1" parent="1">
          <mxGeometry x="459" y="-380" width="170" height="20" as="geometry" />
        </mxCell>
        <mxCell id="HH_CeNtuvAIVPq_1st5i-20" value="&lt;h2&gt;MOTOR_BOARD&lt;/h2&gt;" style="text;html=1;strokeColor=none;fillColor=none;align=center;verticalAlign=middle;whiteSpace=wrap;rounded=0;opacity=50;rotation=-25;" vertex="1" parent="1">
          <mxGeometry x="459" y="-510" width="170" height="20" as="geometry" />
        </mxCell>
        <mxCell id="HH_CeNtuvAIVPq_1st5i-22" value="&lt;h2&gt;CONNECTIVITY&lt;/h2&gt;" style="text;html=1;strokeColor=none;fillColor=none;align=center;verticalAlign=middle;whiteSpace=wrap;rounded=0;opacity=50;rotation=-25;" vertex="1" parent="1">
          <mxGeometry x="459" y="-760" width="170" height="20" as="geometry" />
        </mxCell>
        <mxCell id="HH_CeNtuvAIVPq_1st5i-24" value="&lt;h2&gt;PERIPHERALS&lt;/h2&gt;" style="text;html=1;strokeColor=none;fillColor=none;align=center;verticalAlign=middle;whiteSpace=wrap;rounded=0;opacity=50;rotation=-25;" vertex="1" parent="1">
          <mxGeometry x="459" y="-634" width="170" height="20" as="geometry" />
        </mxCell>
        <mxCell id="HH_CeNtuvAIVPq_1st5i-25" value="" style="verticalLabelPosition=bottom;verticalAlign=top;html=1;shape=mxgraph.basic.patternFillRect;fillStyle=diag;step=5;fillStrokeWidth=0.2;fillStrokeColor=#dddddd;opacity=50;rotation=-25;strokeColor=#006EAF;fontColor=#ffffff;fillColor=#1BA1E2;" vertex="1" parent="1">
          <mxGeometry x="208.93" y="-419.88" width="198.59" height="33.24" as="geometry" />
        </mxCell>
        <mxCell id="HH_CeNtuvAIVPq_1st5i-27" value="" style="verticalLabelPosition=bottom;verticalAlign=top;html=1;shape=mxgraph.basic.patternFillRect;fillStyle=diag;step=5;fillStrokeWidth=0.2;fillStrokeColor=#dddddd;opacity=50;rotation=-25;strokeColor=#006EAF;fontColor=#ffffff;fillColor=#1BA1E2;" vertex="1" parent="1">
          <mxGeometry x="207.59" y="-522.96" width="200" height="33.24" as="geometry" />
        </mxCell>
        <mxCell id="HH_CeNtuvAIVPq_1st5i-29" value="" style="verticalLabelPosition=bottom;verticalAlign=top;html=1;shape=mxgraph.basic.patternFillRect;fillStyle=diag;step=5;fillStrokeWidth=0.2;fillStrokeColor=#dddddd;opacity=50;rotation=-25;strokeColor=#006EAF;fontColor=#ffffff;fillColor=#1BA1E2;" vertex="1" parent="1">
          <mxGeometry x="207.59" y="-756.34" width="200" height="33.24" as="geometry" />
        </mxCell>
        <mxCell id="HH_CeNtuvAIVPq_1st5i-34" value="" style="verticalLabelPosition=bottom;verticalAlign=top;html=1;shape=mxgraph.basic.patternFillRect;fillStyle=diag;step=5;fillStrokeWidth=0.2;fillStrokeColor=#dddddd;opacity=50;rotation=-25;strokeColor=#006EAF;fontColor=#ffffff;fillColor=#1BA1E2;" vertex="1" parent="1">
          <mxGeometry x="207.59" y="-647.34" width="200" height="33.24" as="geometry" />
        </mxCell>
        <mxCell id="HH_CeNtuvAIVPq_1st5i-37" value="" style="verticalLabelPosition=bottom;verticalAlign=top;html=1;shape=mxgraph.basic.patternFillRect;fillStyle=diag;step=5;fillStrokeWidth=0.2;fillStrokeColor=#dddddd;opacity=50;rotation=-155;strokeColor=#2D7600;fontColor=#ffffff;fillColor=#60a917;" vertex="1" parent="1">
          <mxGeometry x="429" y="-641" width="230" height="33.24" as="geometry" />
        </mxCell>
        <mxCell id="HH_CeNtuvAIVPq_1st5i-38" value="" style="verticalLabelPosition=bottom;verticalAlign=top;html=1;shape=mxgraph.basic.patternFillRect;fillStyle=diag;step=5;fillStrokeWidth=0.2;fillStrokeColor=#dddddd;opacity=50;rotation=-155;strokeColor=#2D7600;fontColor=#ffffff;fillColor=#60a917;" vertex="1" parent="1">
          <mxGeometry x="429" y="-750" width="230" height="33.24" as="geometry" />
        </mxCell>
        <mxCell id="HH_CeNtuvAIVPq_1st5i-39" value="&lt;font color=&quot;#FFFFFF&quot;&gt;&lt;span style=&quot;background-color: rgb(51 , 102 , 0)&quot;&gt;LOGIC&lt;/span&gt;&lt;/font&gt;" style="verticalLabelPosition=bottom;verticalAlign=top;html=1;shape=mxgraph.basic.patternFillRect;fillStyle=diag;step=5;fillStrokeWidth=0.2;fillStrokeColor=#dddddd;opacity=50;rotation=25;strokeColor=#2D7600;fontColor=#ffffff;fillColor=#60a917;" vertex="1" parent="1">
          <mxGeometry x="418.29" y="-906.6" width="230" height="36.59" as="geometry" />
        </mxCell>
        <mxCell id="HH_CeNtuvAIVPq_1st5i-40" value="" style="verticalLabelPosition=bottom;verticalAlign=top;html=1;shape=mxgraph.basic.patternFillRect;fillStyle=diag;step=5;fillStrokeWidth=0.2;fillStrokeColor=#dddddd;opacity=50;rotation=-155;strokeColor=#2D7600;fontColor=#ffffff;fillColor=#60a917;" vertex="1" parent="1">
          <mxGeometry x="429" y="-516.62" width="230" height="33.24" as="geometry" />
        </mxCell>
        <mxCell id="HH_CeNtuvAIVPq_1st5i-41" value="" style="verticalLabelPosition=bottom;verticalAlign=top;html=1;shape=mxgraph.basic.patternFillRect;fillStyle=diag;step=5;fillStrokeWidth=0.2;fillStrokeColor=#dddddd;opacity=50;rotation=-155;strokeColor=#2D7600;fontColor=#ffffff;fillColor=#60a917;" vertex="1" parent="1">
          <mxGeometry x="429" y="-413.24" width="230" height="33.24" as="geometry" />
        </mxCell>
        <mxCell id="HH_CeNtuvAIVPq_1st5i-42" value="" style="verticalLabelPosition=bottom;verticalAlign=top;html=1;shape=mxgraph.basic.patternFillRect;fillStyle=diag;step=5;fillStrokeWidth=0.2;fillStrokeColor=#dddddd;opacity=50;rotation=-155;strokeColor=#A50040;fontColor=#ffffff;fillColor=#d80073;" vertex="1" parent="1">
          <mxGeometry x="205.47" y="-294.13" width="202.23" height="33.24" as="geometry" />
        </mxCell>
        <mxCell id="HH_CeNtuvAIVPq_1st5i-43" value="" style="verticalLabelPosition=bottom;verticalAlign=top;html=1;shape=mxgraph.basic.patternFillRect;fillStyle=diag;step=5;fillStrokeWidth=0.2;fillStrokeColor=#dddddd;opacity=50;rotation=-155;strokeColor=#A50040;fontColor=#ffffff;fillColor=#d80073;" vertex="1" parent="1">
          <mxGeometry x="205.29" y="-393.24" width="202.23" height="33.24" as="geometry" />
        </mxCell>
        <mxCell id="HH_CeNtuvAIVPq_1st5i-44" value="" style="verticalLabelPosition=bottom;verticalAlign=top;html=1;shape=mxgraph.basic.patternFillRect;fillStyle=diag;step=5;fillStrokeWidth=0.2;fillStrokeColor=#dddddd;opacity=50;rotation=-155;strokeColor=#A50040;fontColor=#ffffff;fillColor=#d80073;" vertex="1" parent="1">
          <mxGeometry x="196.77" y="-514.55" width="202.23" height="29.11" as="geometry" />
        </mxCell>
        <mxCell id="HH_CeNtuvAIVPq_1st5i-45" value="" style="verticalLabelPosition=bottom;verticalAlign=top;html=1;shape=mxgraph.basic.patternFillRect;fillStyle=diag;step=5;fillStrokeWidth=0.2;fillStrokeColor=#dddddd;opacity=50;rotation=-155;strokeColor=#A50040;fontColor=#ffffff;fillColor=#d80073;" vertex="1" parent="1">
          <mxGeometry x="196.76999999999998" y="-633.24" width="202.23" height="33.24" as="geometry" />
        </mxCell>
        <mxCell id="HH_CeNtuvAIVPq_1st5i-48" value="&lt;div align=&quot;center&quot;&gt;&lt;font color=&quot;#330000&quot;&gt;&lt;span style=&quot;background-color: rgb(27 , 161 , 226)&quot;&gt;&lt;b&gt;POVER&lt;/b&gt;&lt;/span&gt;&lt;/font&gt;&lt;/div&gt;" style="verticalLabelPosition=bottom;verticalAlign=top;html=1;shape=mxgraph.basic.patternFillRect;fillStyle=diag;step=5;fillStrokeWidth=0.2;fillStrokeColor=#dddddd;opacity=50;rotation=-25;strokeColor=#006EAF;fontColor=#ffffff;fillColor=#1BA1E2;align=center;" vertex="1" parent="1">
          <mxGeometry x="199.47000000000003" y="-890" width="199.53" height="33.24" as="geometry" />
        </mxCell>
        <mxCell id="HH_CeNtuvAIVPq_1st5i-49" value="&lt;span style=&quot;background-color: rgb(153 , 0 , 77)&quot;&gt;LOGIC&lt;/span&gt;" style="verticalLabelPosition=bottom;verticalAlign=top;html=1;shape=mxgraph.basic.patternFillRect;fillStyle=diag;step=5;fillStrokeWidth=0.2;fillStrokeColor=#dddddd;opacity=50;rotation=25;strokeColor=#A50040;fontColor=#ffffff;fillColor=#d80073;" vertex="1" parent="1">
          <mxGeometry x="190.14" y="-772.5" width="198.85" height="32.56" as="geometry" />
        </mxCell>
        <mxCell id="HH_CeNtuvAIVPq_1st5i-52" value="&lt;div style=&quot;font-size: 25px&quot;&gt;&lt;h1&gt;&lt;font style=&quot;font-size: 25px&quot;&gt;&lt;b&gt;CubDebV2&lt;/b&gt;&lt;/font&gt;&lt;/h1&gt;&lt;/div&gt;" style="text;html=1;strokeColor=none;fillColor=none;align=center;verticalAlign=middle;whiteSpace=wrap;rounded=0;opacity=50;" vertex="1" parent="1">
          <mxGeometry x="130" y="-1140" width="40" height="20" as="geometry" />
        </mxCell>
        <mxCell id="HH_CeNtuvAIVPq_1st5i-61" value="" style="html=1;shadow=0;dashed=0;align=center;verticalAlign=middle;shape=mxgraph.arrows2.twoWayArrow;dy=0.65;dx=22;opacity=50;labelBackgroundColor=#99004D;labelBorderColor=#000000;direction=east;flipH=1;flipV=0;fillColor=#d80073;strokeColor=#A50040;fontColor=#ffffff;rotation=-90;" vertex="1" parent="1">
          <mxGeometry x="232.5" y="-722.5" width="135" height="60" as="geometry" />
        </mxCell>
        <mxCell id="HH_CeNtuvAIVPq_1st5i-63" value="" style="html=1;shadow=0;dashed=0;align=center;verticalAlign=middle;shape=mxgraph.arrows2.twoWayArrow;dy=0.65;dx=22;opacity=50;labelBackgroundColor=#99004D;labelBorderColor=#000000;direction=east;flipH=1;flipV=0;fillColor=#d80073;strokeColor=#A50040;fontColor=#ffffff;rotation=-90;" vertex="1" parent="1">
          <mxGeometry x="243.75" y="-584.21" width="112.5" height="60" as="geometry" />
        </mxCell>
        <mxCell id="HH_CeNtuvAIVPq_1st5i-64" value="" style="html=1;shadow=0;dashed=0;align=center;verticalAlign=middle;shape=mxgraph.arrows2.twoWayArrow;dy=0.65;dx=22;opacity=50;labelBackgroundColor=#99004D;labelBorderColor=#000000;direction=east;flipH=1;flipV=0;fillColor=#d80073;strokeColor=#A50040;fontColor=#ffffff;rotation=-90;" vertex="1" parent="1">
          <mxGeometry x="245" y="-468.24" width="110" height="60" as="geometry" />
        </mxCell>
        <mxCell id="HH_CeNtuvAIVPq_1st5i-65" value="" style="html=1;shadow=0;dashed=0;align=center;verticalAlign=middle;shape=mxgraph.arrows2.twoWayArrow;dy=0.65;dx=22;opacity=50;labelBackgroundColor=#99004D;labelBorderColor=#000000;direction=east;flipH=1;flipV=0;fillColor=#d80073;strokeColor=#A50040;fontColor=#ffffff;rotation=-90;" vertex="1" parent="1">
          <mxGeometry x="245" y="-355" width="110" height="60" as="geometry" />
        </mxCell>
        <mxCell id="HH_CeNtuvAIVPq_1st5i-67" value="" style="html=1;shadow=0;dashed=0;align=center;verticalAlign=middle;shape=mxgraph.arrows2.twoWayArrow;dy=0.65;dx=22;opacity=50;labelBackgroundColor=#99004D;labelBorderColor=#000000;direction=east;flipH=1;flipV=0;fillColor=#60a917;strokeColor=#2D7600;fontColor=#ffffff;rotation=-90;" vertex="1" parent="1">
          <mxGeometry x="494" y="-832.5" width="135" height="60" as="geometry" />
        </mxCell>
        <mxCell id="HH_CeNtuvAIVPq_1st5i-70" value="" style="html=1;shadow=0;dashed=0;align=center;verticalAlign=middle;shape=mxgraph.arrows2.twoWayArrow;dy=0.65;dx=22;opacity=50;labelBackgroundColor=#99004D;labelBorderColor=#000000;direction=east;flipH=1;flipV=0;fillColor=#60a917;strokeColor=#2D7600;fontColor=#ffffff;rotation=-90;" vertex="1" parent="1">
          <mxGeometry x="512" y="-698" width="99" height="60" as="geometry" />
        </mxCell>
        <mxCell id="HH_CeNtuvAIVPq_1st5i-71" value="" style="html=1;shadow=0;dashed=0;align=center;verticalAlign=middle;shape=mxgraph.arrows2.twoWayArrow;dy=0.65;dx=22;opacity=50;labelBackgroundColor=#99004D;labelBorderColor=#000000;direction=east;flipH=1;flipV=0;fillColor=#60a917;strokeColor=#2D7600;fontColor=#ffffff;rotation=-90;" vertex="1" parent="1">
          <mxGeometry x="506" y="-578" width="111" height="60" as="geometry" />
        </mxCell>
        <mxCell id="HH_CeNtuvAIVPq_1st5i-72" value="" style="html=1;shadow=0;dashed=0;align=center;verticalAlign=middle;shape=mxgraph.arrows2.twoWayArrow;dy=0.65;dx=22;opacity=50;labelBackgroundColor=#99004D;labelBorderColor=#000000;direction=east;flipH=1;flipV=0;fillColor=#60a917;strokeColor=#2D7600;fontColor=#ffffff;rotation=-90;" vertex="1" parent="1">
          <mxGeometry x="518" y="-472" width="87" height="60" as="geometry" />
        </mxCell>
        <mxCell id="HH_CeNtuvAIVPq_1st5i-73" value="" style="html=1;shadow=0;dashed=0;align=center;verticalAlign=middle;shape=mxgraph.arrows2.twoWayArrow;dy=0.65;dx=22;opacity=50;labelBackgroundColor=#99004D;labelBorderColor=#000000;direction=east;flipH=1;flipV=0;fillColor=#1ba1e2;strokeColor=#006EAF;fontColor=#ffffff;rotation=-90;" vertex="1" parent="1">
          <mxGeometry x="296" y="-864" width="119" height="60" as="geometry" />
        </mxCell>
        <mxCell id="HH_CeNtuvAIVPq_1st5i-74" value="" style="html=1;shadow=0;dashed=0;align=center;verticalAlign=middle;shape=mxgraph.arrows2.twoWayArrow;dy=0.65;dx=22;opacity=50;labelBackgroundColor=#99004D;labelBorderColor=#000000;direction=east;flipH=1;flipV=0;fillColor=#1ba1e2;strokeColor=#006EAF;fontColor=#ffffff;rotation=-90;" vertex="1" parent="1">
          <mxGeometry x="303" y="-737" width="105" height="60" as="geometry" />
        </mxCell>
        <mxCell id="HH_CeNtuvAIVPq_1st5i-75" value="" style="html=1;shadow=0;dashed=0;align=center;verticalAlign=middle;shape=mxgraph.arrows2.twoWayArrow;dy=0.65;dx=22;opacity=50;labelBackgroundColor=#99004D;labelBorderColor=#000000;direction=east;flipH=1;flipV=0;fillColor=#1ba1e2;strokeColor=#006EAF;fontColor=#ffffff;rotation=-90;" vertex="1" parent="1">
          <mxGeometry x="303" y="-621" width="105" height="60" as="geometry" />
        </mxCell>
        <mxCell id="HH_CeNtuvAIVPq_1st5i-76" value="" style="html=1;shadow=0;dashed=0;align=center;verticalAlign=middle;shape=mxgraph.arrows2.twoWayArrow;dy=0.65;dx=22;opacity=50;labelBackgroundColor=#99004D;labelBorderColor=#000000;direction=east;flipH=1;flipV=0;fillColor=#1ba1e2;strokeColor=#006EAF;fontColor=#ffffff;rotation=-90;" vertex="1" parent="1">
          <mxGeometry x="314.65" y="-505.35" width="88.29" height="60" as="geometry" />
        </mxCell>
        <mxCell id="HH_CeNtuvAIVPq_1st5i-79" value="FRONT" style="text;html=1;strokeColor=none;fillColor=none;align=center;verticalAlign=middle;whiteSpace=wrap;rounded=0;opacity=50;rotation=-25;" vertex="1" parent="1">
          <mxGeometry x="530" y="-210" width="170" height="20" as="geometry" />
        </mxCell>
      </root>
    </mxGraphModel>
  </diagram>
</mxfile>
